# xmcd CD database file generated by GCD 2.95
# 
# Track frame offsets:
#       150
#       24908
#       49188
#       76765
#       95436
#       118270
#       137925
#       166565
#       185025
#       199754
#       223350
#       243449
#       265262
#       284992
#       308053
# 
# Disc length: 4352 seconds
# 
# Revision: 3
# Processed by: cddbd v1.4b42PL1 Copyright (c) Steve Scherf et al.
# Submitted via: GCD 2.95
# 
DISCID=df10fe0f
DTITLE=Nick Cave - I Told Nothing Than The Truth (Vienna 2001-04-10, Vienna 1997-06-06)
DYEAR=1900
DGENRE=
TTITLE0=Long Time Man
TTITLE1=As I Sat Sadly By Her Side
TTITLE2=God Is In The House
TTITLE3=And No More Shall We Part
TTITLE4=The Mercy Seat
TTITLE5=The Weeping Song
TTITLE6=Fifteen Feet Of Pure White Snow
TTITLE7=Love Letter
TTITLE8=Lime Tree
TTITLE9=Stranger Than Kindness
TTITLE10=Let Love In
TTITLE11=Into My Arms
TTITLE12=Henry Lee
TTITLE13=The Weeping Song
TTITLE14=Where The Wild Roses Grow
EXTD=
EXTT0=
EXTT1=
EXTT2=
EXTT3=
EXTT4=
EXTT5=
EXTT6=
EXTT7=
EXTT8=
EXTT9=
EXTT10=
EXTT11=
EXTT12=
EXTT13=
EXTT14=
PLAYORDER=
